<svg width="150" height="153" viewBox="0 0 150 153" fill="none" xmlns="http://www.w3.org/2000/svg">
<path opacity="0.03" d="M142.426 146.262C142.426 148.58 112.485 150.457 75.5574 150.457C38.6294 150.457 8.68896 148.58 8.68896 146.262C8.68896 143.944 38.6294 142.068 75.5574 142.068C112.485 142.068 142.426 143.944 142.426 146.262Z" fill="white"/>
<path opacity="0.05" d="M140.435 146.262C140.435 148.481 111.394 150.279 75.568 150.279C39.7422 150.279 10.7006 148.481 10.7006 146.262C10.7006 144.043 39.7422 142.246 75.568 142.246C111.394 142.246 140.435 144.043 140.435 146.262Z" fill="white"/>
<path opacity="0.08" d="M138.445 146.262C138.445 148.383 110.292 150.101 75.568 150.101C40.8444 150.101 12.6909 148.383 12.6909 146.262C12.6909 144.142 40.8444 142.424 75.568 142.424C110.292 142.424 138.445 144.142 138.445 146.262Z" fill="white"/>
<path opacity="0.11" d="M136.455 146.262C136.455 148.284 109.19 149.917 75.5682 149.917C41.9467 149.917 14.6814 148.277 14.6814 146.262C14.6814 144.247 41.9467 142.608 75.5682 142.608C109.19 142.608 136.455 144.247 136.455 146.262Z" fill="white"/>
<path opacity="0.13" d="M134.454 146.262C134.454 148.185 108.087 149.739 75.5573 149.739C43.0273 149.739 16.6609 148.185 16.6609 146.262C16.6609 144.339 43.0273 142.785 75.5573 142.785C108.087 142.785 134.454 144.339 134.454 146.262Z" fill="white"/>
<path opacity="0.16" d="M75.5574 149.561C106.986 149.561 132.463 148.084 132.463 146.262C132.463 144.44 106.986 142.963 75.5574 142.963C44.129 142.963 18.6512 144.44 18.6512 146.262C18.6512 148.084 44.129 149.561 75.5574 149.561Z" fill="white"/>
<path opacity="0.18" d="M75.5574 149.377C105.887 149.377 130.473 147.982 130.473 146.262C130.473 144.542 105.887 143.148 75.5574 143.148C45.2282 143.148 20.6416 144.542 20.6416 146.262C20.6416 147.982 45.2282 149.377 75.5574 149.377Z" fill="white"/>
<path opacity="0.21" d="M75.5573 149.199C104.781 149.199 128.472 147.884 128.472 146.262C128.472 144.64 104.781 143.326 75.5573 143.326C46.3333 143.326 22.6426 144.64 22.6426 146.262C22.6426 147.884 46.3333 149.199 75.5573 149.199Z" fill="white"/>
<path opacity="0.24" d="M75.5574 149.021C103.682 149.021 126.482 147.786 126.482 146.262C126.482 144.738 103.682 143.503 75.5574 143.503C47.4326 143.503 24.6329 144.738 24.6329 146.262C24.6329 147.786 47.4326 149.021 75.5574 149.021Z" fill="white"/>
<path opacity="0.26" d="M75.5574 148.837C102.583 148.837 124.492 147.684 124.492 146.262C124.492 144.84 102.583 143.688 75.5574 143.688C48.5318 143.688 26.6233 144.84 26.6233 146.262C26.6233 147.684 48.5318 148.837 75.5574 148.837Z" fill="white"/>
<path opacity="0.29" d="M75.5573 148.659C101.484 148.659 122.501 147.586 122.501 146.262C122.501 144.939 101.484 143.865 75.5573 143.865C49.631 143.865 28.6135 144.939 28.6135 146.262C28.6135 147.586 49.631 148.659 75.5573 148.659Z" fill="white"/>
<path opacity="0.32" d="M75.5574 148.481C100.384 148.481 120.511 147.488 120.511 146.262C120.511 145.037 100.384 144.043 75.5574 144.043C50.7302 144.043 30.6039 145.037 30.6039 146.262C30.6039 147.488 50.7302 148.481 75.5574 148.481Z" fill="white"/>
<path opacity="0.34" d="M75.5574 148.297C99.2853 148.297 118.521 147.386 118.521 146.262C118.521 145.138 99.2853 144.228 75.5574 144.228C51.8295 144.228 32.5942 145.138 32.5942 146.262C32.5942 147.386 51.8295 148.297 75.5574 148.297Z" fill="white"/>
<path opacity="0.37" d="M75.5573 148.119C98.1801 148.119 116.519 147.288 116.519 146.262C116.519 145.237 98.1801 144.405 75.5573 144.405C52.9346 144.405 34.5952 145.237 34.5952 146.262C34.5952 147.288 52.9346 148.119 75.5573 148.119Z" fill="white"/>
<path opacity="0.39" d="M75.5574 147.941C97.0809 147.941 114.529 147.189 114.529 146.262C114.529 145.335 97.0809 144.583 75.5574 144.583C54.0338 144.583 36.5856 145.335 36.5856 146.262C36.5856 147.189 54.0338 147.941 75.5574 147.941Z" fill="white"/>
<path opacity="0.42" d="M75.5573 147.757C95.9816 147.757 112.539 147.088 112.539 146.262C112.539 145.437 95.9816 144.768 75.5573 144.768C55.133 144.768 38.5758 145.437 38.5758 146.262C38.5758 147.088 55.133 147.757 75.5573 147.757Z" fill="white"/>
<path opacity="0.45" d="M75.5574 147.579C94.8825 147.579 110.549 146.99 110.549 146.262C110.549 145.535 94.8825 144.945 75.5574 144.945C56.2324 144.945 40.5663 145.535 40.5663 146.262C40.5663 146.99 56.2324 147.579 75.5574 147.579Z" fill="white"/>
<path opacity="0.47" d="M75.5574 147.401C93.7832 147.401 108.558 146.891 108.558 146.262C108.558 145.633 93.7832 145.123 75.5574 145.123C57.3315 145.123 42.5565 145.633 42.5565 146.262C42.5565 146.891 57.3315 147.401 75.5574 147.401Z" fill="white"/>
<path opacity="0.5" d="M75.5573 147.217C92.678 147.217 106.557 146.789 106.557 146.262C106.557 145.735 92.678 145.307 75.5573 145.307C58.4366 145.307 44.5575 145.735 44.5575 146.262C44.5575 146.789 58.4366 147.217 75.5573 147.217Z" fill="white"/>
<path opacity="0.05" d="M23.8412 45.822C36.3716 20.5703 54.6162 0.0134277 76.0283 0.0134277C97.4403 0.0134277 115.021 21.5119 127.135 47.2509C133.416 60.5714 138.253 76.0055 141.441 90.34C144.416 103.759 145.957 116.204 145.914 124.902C145.882 142.944 110.377 151.247 74.8512 150.654C39.3571 150.068 3.85232 140.731 3.84162 122.275C3.78812 108.164 7.60825 88.1935 14.2855 69.0918C17.0248 61.2364 20.1387 53.2823 23.8305 45.822H23.8412Z" fill="url(#paint0_linear_5_2165)" style="mix-blend-mode:screen"/>
<path opacity="0.09" d="M26.5377 44.0108C38.2335 19.7205 55.6863 0.026123 75.9533 0.026123C96.2204 0.026123 112.956 21.5049 124.395 46.7039C130.323 59.7281 134.893 75.7088 137.889 90.5371C140.682 104.496 142.083 117.435 142.03 125.646C141.912 142.687 108.43 149.844 74.8084 148.751C41.2832 147.658 7.71523 138.591 7.68313 120.727C7.58682 106.123 11.2464 85.8884 17.4528 67.3925C20.0852 59.5306 22.9423 51.4711 26.527 44.024L26.5377 44.0108Z" fill="url(#paint1_linear_5_2165)" style="mix-blend-mode:screen"/>
<path opacity="0.14" d="M29.2449 42.2066C40.1168 18.8645 56.767 0.0327148 75.8784 0.0327148C94.9898 0.0327148 110.891 21.4917 121.656 46.1574C127.231 58.8853 131.533 75.4125 134.336 90.7347C136.947 105.24 138.231 118.666 138.146 126.39C137.974 142.43 106.493 148.455 74.7762 146.848C43.2414 145.255 11.653 136.444 11.546 119.173C11.4497 104.075 14.8953 83.5707 20.6416 65.6805C23.167 57.8186 25.7779 49.6538 29.2449 42.2066Z" fill="url(#paint2_linear_5_2165)" style="mix-blend-mode:screen"/>
<path opacity="0.19" d="M31.9415 40.3959C42.0215 18.0217 57.8371 0.0458984 75.8142 0.0458984C93.7913 0.0458984 108.836 21.4851 118.927 45.6109C124.16 58.049 128.183 75.1161 130.794 90.9256C133.223 105.978 134.379 119.884 134.261 127.134C134.026 142.166 104.578 147.059 74.7334 144.939C45.1996 142.845 15.5267 134.298 15.3876 117.613C15.2592 102.021 18.5122 81.2464 23.809 63.962C26.2166 56.0934 28.5922 47.8364 31.9415 40.3893V40.3959Z" fill="url(#paint3_linear_5_2165)" style="mix-blend-mode:screen"/>
<path opacity="0.24" d="M34.6488 38.5854C43.937 17.1791 58.9072 0.0593262 75.7394 0.0593262C92.5715 0.0593262 106.771 21.4854 116.188 45.0646C121.067 57.2065 124.813 74.8201 127.242 91.1234C129.489 106.716 130.516 121.116 130.377 127.878C130.088 141.91 102.694 145.67 74.6907 143.036C47.1686 140.448 19.4004 132.158 19.2292 116.066C19.0687 99.9862 22.1184 78.9355 26.9765 62.2568C29.2664 54.3817 31.4065 46.026 34.6381 38.5854H34.6488Z" fill="url(#paint4_linear_5_2165)" style="mix-blend-mode:screen"/>
<path opacity="0.28" d="M37.3454 36.7813C45.8845 16.3429 59.9773 0.0725098 75.6644 0.0725098C91.3516 0.0725098 104.706 21.4788 113.448 44.5247C117.986 56.3703 121.453 74.5238 123.689 91.3276C125.754 107.466 126.653 122.347 126.493 128.629C126.15 141.66 100.832 144.294 74.6479 141.14C49.1589 138.065 23.274 130.025 23.0814 114.518C22.8781 97.945 25.7245 76.6177 30.1652 60.558C32.3375 52.6764 34.2422 44.2218 37.3454 36.7813Z" fill="url(#paint5_linear_5_2165)" style="mix-blend-mode:screen"/>
<path opacity="0.33" d="M40.0525 34.9705C47.8426 15.5133 61.0472 0.0791016 75.5894 0.0791016C90.1316 0.0791016 102.641 21.4657 110.72 43.9716C114.904 55.5275 118.103 74.221 120.147 91.5185C122.041 108.204 122.811 123.572 122.619 129.366C122.212 141.39 99.0238 142.917 74.6263 139.23C51.2026 135.688 27.1582 127.878 26.9442 112.964C26.7088 95.8972 29.3305 74.2934 33.3539 58.8461C35.4084 50.9578 37.0884 42.4111 40.0632 34.9705H40.0525Z" fill="url(#paint6_linear_5_2165)" style="mix-blend-mode:screen"/>
<path opacity="0.38" d="M42.7492 33.1664C49.8223 14.6836 62.1174 0.0922852 75.5146 0.0922852C88.9118 0.0922852 100.576 21.4591 107.98 43.4251C111.811 54.6847 114.743 73.9247 116.594 91.7161C118.307 108.941 118.949 124.797 118.724 130.117C118.264 141.14 97.2262 141.568 74.5729 137.334C53.2251 133.343 31.0105 125.738 30.7858 111.417C30.5076 93.856 32.9046 71.9756 36.5214 57.1407C38.4475 49.2392 39.9135 40.6069 42.7599 33.1664H42.7492Z" fill="url(#paint7_linear_5_2165)" style="mix-blend-mode:screen"/>
<path opacity="0.43" d="M45.4564 31.3557C51.834 13.8606 63.1981 0.105469 75.4397 0.105469C87.6812 0.105469 98.5103 21.4525 105.241 42.8852C108.729 53.8484 111.383 73.6349 113.042 91.9136C114.572 109.685 115.086 126.028 114.84 130.861C114.315 140.883 95.4713 140.238 74.5301 135.424C55.2903 131.006 34.8735 123.592 34.6274 109.863C34.3063 91.8083 36.4572 69.6513 39.6888 55.4353C41.4865 47.5273 42.7385 38.8028 45.4564 31.3622V31.3557Z" fill="url(#paint8_linear_5_2165)" style="mix-blend-mode:screen"/>
<path opacity="0.47" d="M48.153 29.5449C53.8565 13.0375 64.2682 0.118652 75.3755 0.118652C86.4828 0.118652 96.4558 21.446 102.512 42.3387C105.648 53.0056 108.034 73.3387 109.489 92.1112C110.837 110.429 111.233 127.253 110.955 131.605C110.377 140.619 93.7592 138.927 74.4873 133.521C57.3663 128.715 38.7364 121.452 38.4796 108.309C38.1158 89.7605 40.0098 67.3204 42.8669 53.7233C44.5255 45.8021 45.5848 36.992 48.153 29.5449Z" fill="url(#paint9_linear_5_2165)" style="mix-blend-mode:screen"/>
<path opacity="0.52" d="M50.8602 27.7405C55.9002 12.2208 65.3382 0.125 75.3005 0.125C85.2628 0.125 94.3905 21.4391 99.7729 41.7853C102.566 52.1626 104.674 73.0355 105.936 92.3019C107.103 111.16 107.37 128.477 107.06 132.342C106.429 140.356 92.0684 137.663 74.4444 131.612C59.4635 126.469 42.5993 119.305 42.3211 106.755C41.9144 87.7125 43.5516 64.9958 46.0342 52.0111C47.5537 44.0833 48.4311 35.1876 50.8495 27.734L50.8602 27.7405Z" fill="url(#paint10_linear_5_2165)" style="mix-blend-mode:screen"/>
<path opacity="0.57" d="M53.5568 25.9298C57.9762 11.4109 66.4083 0.138184 75.2257 0.138184C84.5459 0.138184 92.3253 21.4326 97.0336 41.2454C99.4733 51.3263 101.314 72.7392 102.384 92.506C103.368 111.911 103.507 129.709 103.176 133.1C102.48 140.106 90.3992 136.464 74.4017 129.722C61.5395 124.296 46.4516 117.178 46.1734 105.214C45.7132 85.6778 47.0829 62.6781 49.223 50.3123C50.5927 42.3714 51.299 33.3901 53.5675 25.9364L53.5568 25.9298Z" fill="url(#paint11_linear_5_2165)" style="mix-blend-mode:screen"/>
<path opacity="0.62" d="M56.2641 24.1257C60.0628 10.601 67.4784 0.151367 75.1508 0.151367C83.3689 0.151367 90.2601 21.426 94.2943 40.6989C96.3916 50.4835 97.9539 72.443 98.8313 92.7036C99.6339 112.655 99.6553 130.933 99.2915 133.844C98.5424 139.842 88.6978 135.325 74.3589 127.819C63.5834 122.176 50.3145 115.038 50.0149 103.667C49.5013 83.6432 50.5928 60.3537 52.3905 48.6135C53.6103 40.6594 54.1668 31.5991 56.2641 24.1322V24.1257Z" fill="url(#paint12_linear_5_2165)" style="mix-blend-mode:screen"/>
<path opacity="0.66" d="M58.9713 22.3149C62.1815 9.79114 68.5484 0.164551 75.0758 0.164551C82.1918 0.164551 88.1948 21.4194 91.5548 40.1524C93.299 49.6473 94.5938 72.1467 95.2787 92.8945C95.91 113.386 95.7923 132.152 95.3964 134.581C94.5938 139.572 86.9108 134.259 74.3054 125.903C65.5522 120.102 54.156 112.879 53.8564 102.1C53.2893 81.5823 54.0918 58.0097 55.5578 46.8884C56.6065 38.9277 57.0345 29.7818 58.9606 22.3083L58.9713 22.3149Z" fill="url(#paint13_linear_5_2165)" style="mix-blend-mode:screen"/>
<path opacity="0.71" d="M61.6679 20.5044C64.311 8.9815 69.6185 0.177979 75.0009 0.177979C81.0147 0.177979 86.1296 21.4131 88.8155 39.6127C90.2066 48.8113 91.2231 71.8572 91.7261 93.0989C92.1755 114.136 91.9294 133.376 91.5121 135.332C90.656 139.316 84.974 133.271 74.2733 124.007C67.4356 118.094 58.019 110.745 57.7087 100.559C57.0773 79.5479 57.591 55.6856 58.7359 45.1898C59.6134 37.216 59.9451 27.991 61.6572 20.511L61.6679 20.5044Z" fill="url(#paint14_linear_5_2165)" style="mix-blend-mode:screen"/>
<path opacity="0.76" d="M64.3752 18.7C66.4726 8.17795 70.6993 0.184326 74.9368 0.184326C79.8484 0.184326 84.0751 21.3997 86.0869 39.0594C87.1355 47.9617 87.8739 71.5541 88.1842 93.2896C88.4517 114.874 88.0879 134.588 87.6385 136.076C86.7289 139.046 82.8125 132.323 74.2412 122.104C69.2012 116.092 61.882 108.605 61.5717 99.005C60.8761 77.4999 61.0794 53.3544 61.9248 43.4842C62.6096 35.4972 62.8771 26.1998 64.3752 18.7Z" fill="url(#paint15_linear_5_2165)" style="mix-blend-mode:screen"/>
<path opacity="0.81" d="M67.0717 16.8893C68.6554 7.36807 71.7693 0.19751 74.8618 0.19751C78.6712 0.19751 82.0098 21.3997 83.3581 38.5129C84.0537 47.1189 84.5245 71.2578 84.6422 93.4872C84.7278 115.618 84.2463 135.799 83.754 136.82C82.8231 138.762 80.3619 131.368 74.1984 120.201C70.817 114.064 65.702 106.465 65.4131 97.4511C64.5785 75.4521 64.5464 51.0301 65.0921 41.7723C65.5629 33.772 65.8197 24.3957 67.0717 16.8893Z" fill="url(#paint16_linear_5_2165)" style="mix-blend-mode:screen"/>
<path opacity="0.85" d="M69.7791 15.0852C70.8706 6.56477 72.8395 0.210693 74.787 0.210693C77.4943 0.210693 79.9447 21.3931 80.6189 37.973C80.972 46.2893 81.1646 70.9681 81.079 93.6913C80.9827 116.362 80.6189 137.09 79.8591 137.571C79.3562 138.572 77.6334 130.347 74.145 118.298C72.3152 111.97 69.5544 104.325 69.2548 95.9037C68.3773 73.4109 67.9921 48.7058 68.2703 40.0669C68.5164 32.0535 68.816 22.6047 69.7791 15.0852Z" fill="url(#paint17_linear_5_2165)" style="mix-blend-mode:screen"/>
<path opacity="0.9" d="M77.8795 37.4265C77.8795 45.4464 77.8046 70.6652 77.5263 93.8823C77.2481 117.099 76.7773 138.308 75.9747 138.308C75.1722 138.308 74.0379 117.33 73.107 94.3498C72.176 71.3698 71.4484 46.3815 71.4484 38.3549C71.4484 30.3284 71.8657 20.8005 72.4756 13.2744C73.0856 5.7483 73.9095 0.223877 74.7121 0.223877C76.3172 0.223877 77.8795 21.3866 77.8795 37.4265Z" fill="url(#paint18_linear_5_2165)" style="mix-blend-mode:screen"/>
<defs>
<linearGradient id="paint0_linear_5_2165" x1="74.8833" y1="19.5432" x2="74.8833" y2="139.395" gradientUnits="userSpaceOnUse">
<stop stop-color="#FFE04D"/>
<stop offset="0.09" stop-color="#FFE04D"/>
<stop offset="0.24" stop-color="#FFE04D"/>
<stop offset="0.44" stop-color="#FFE04D"/>
<stop offset="0.69" stop-color="#FFE04D"/>
<stop offset="0.96" stop-color="#transparent"/>
<stop offset="1" stop-color="#FFE04D" stop-opacity="0"/>
</linearGradient>
<linearGradient id="paint1_linear_5_2165" x1="74.8619" y1="18.4892" x2="74.8619" y2="136.886" gradientUnits="userSpaceOnUse">
<stop stop-color="#FFE04D"/>
<stop offset="0.09" stop-color="#FFE04D"/>
<stop offset="0.23" stop-color="#FFE04D"/>
<stop offset="0.42" stop-color="#FFE04D"/>
<stop offset="0.64" stop-color="#FFE04D"/>
<stop offset="0.89" stop-color="#FFE04D"/>
<stop offset="1" stop-color="#FFE04D" stop-opacity="0"/>
</linearGradient>
<linearGradient id="paint2_linear_5_2165" x1="74.8511" y1="17.462" x2="74.8511" y2="134.449" gradientUnits="userSpaceOnUse">
<stop stop-color="#FFE04D"/>
<stop offset="0.08" stop-color="#FFE04D"/>
<stop offset="0.22" stop-color="#FFE04D"/>
<stop offset="0.4" stop-color="#FFE04D"/>
<stop offset="0.6" stop-color="#FFE04D"/>
<stop offset="0.83" stop-color="#FFE04D"/>
<stop offset="1" stop-color="#FFE04D" stop-opacity="0"/>
</linearGradient>
<linearGradient id="paint3_linear_5_2165" x1="74.8297" y1="16.4677" x2="74.8297" y2="132.099" gradientUnits="userSpaceOnUse">
<stop stop-color="#FFE04D"/>
<stop offset="0.09" stop-color="#FFE04D"/>
<stop offset="0.22" stop-color="#FFE04D"/>
<stop offset="0.38" stop-color="#FFE04D"/>
<stop offset="0.57" stop-color="#FFE04D"/>
<stop offset="0.79" stop-color="#FFE04D"/>
<stop offset="1" stop-color="#FFE04D" stop-opacity="0"/>
</linearGradient>
<linearGradient id="paint4_linear_5_2165" x1="74.8084" y1="15.4935" x2="74.8084" y2="129.86" gradientUnits="userSpaceOnUse">
<stop stop-color="#FFE04D"/>
<stop offset="0.09" stop-color="#FFE04D"/>
<stop offset="0.22" stop-color="#FFE04D"/>
<stop offset="0.37" stop-color="#FFE04D"/>
<stop offset="0.55" stop-color="#FFE04D"/>
<stop offset="0.75" stop-color="#FFE04D"/>
<stop offset="0.96" stop-color="#FFE04D"/>
<stop offset="1" stop-color="#FFE04D" stop-opacity="0"/>
</linearGradient>
<linearGradient id="paint5_linear_5_2165" x1="74.7977" y1="14.5585" x2="74.7977" y2="127.733" gradientUnits="userSpaceOnUse">
<stop stop-color="#FFE04D"/>
<stop offset="0.09" stop-color="#FFE04D"/>
<stop offset="0.22" stop-color="#FFE04D"/>
<stop offset="0.37" stop-color="#FFE04D"/>
<stop offset="0.54" stop-color="#FFE04D"/>
<stop offset="0.72" stop-color="#FFE04D"/>
<stop offset="0.91" stop-color="#FFE04D"/>
<stop offset="1" stop-color="#FFE04D" stop-opacity="0"/>
</linearGradient>
<linearGradient id="paint6_linear_5_2165" x1="74.7762" y1="13.6498" x2="74.7762" y2="125.745" gradientUnits="userSpaceOnUse">
<stop stop-color="#FFE04D"/>
<stop offset="0.09" stop-color="#FFE04D"/>
<stop offset="0.22" stop-color="#FFE04D"/>
<stop offset="0.36" stop-color="#FFE04D"/>
<stop offset="0.52" stop-color="#FFE04D"/>
<stop offset="0.7" stop-color="#FFE04D"/>
<stop offset="0.88" stop-color="#FFE04D"/>
<stop offset="1" stop-color="#FFE04D" stop-opacity="0"/>
</linearGradient>
<linearGradient id="paint7_linear_5_2165" x1="74.7655" y1="12.7675" x2="74.7655" y2="123.914" gradientUnits="userSpaceOnUse">
<stop stop-color="#FFE04D"/>
<stop offset="0.09" stop-color="#FFE04D"/>
<stop offset="0.22" stop-color="#FFE04D"/>
<stop offset="0.36" stop-color="#FFE04D"/>
<stop offset="0.51" stop-color="#FFE04D"/>
<stop offset="0.68" stop-color="#FFE04D"/>
<stop offset="0.85" stop-color="#FFE04D"/>
<stop offset="1" stop-color="#FFE04D" stop-opacity="0"/>
</linearGradient>
<linearGradient id="paint8_linear_5_2165" x1="74.7441" y1="11.9181" x2="74.7441" y2="122.249" gradientUnits="userSpaceOnUse">
<stop stop-color="#FFE04D"/>
<stop offset="0.1" stop-color="#FFE04D"/>
<stop offset="0.22" stop-color="#FFE04D"/>
<stop offset="0.36" stop-color="#FFE04D"/>
<stop offset="0.51" stop-color="#FFE04D"/>
<stop offset="0.66" stop-color="#FFE04D"/>
<stop offset="0.83" stop-color="#FFE04D"/>
<stop offset="0.99" stop-color="#FFE04D"/>
<stop offset="1" stop-color="#FFE04D" stop-opacity="0"/>
</linearGradient>
<linearGradient id="paint9_linear_5_2165" x1="74.7334" y1="11.0885" x2="74.7334" y2="120.754" gradientUnits="userSpaceOnUse">
<stop stop-color="#FFE04D"/>
<stop offset="0.1" stop-color="#FFE04D"/>
<stop offset="0.23" stop-color="#FFE04D"/>
<stop offset="0.36" stop-color="#FFE04D"/>
<stop offset="0.5" stop-color="#FFE04D"/>
<stop offset="0.65" stop-color="#FFE04D"/>
<stop offset="0.8" stop-color="#FFE04D"/>
<stop offset="0.96" stop-color="#FFE04D"/>
<stop offset="1" stop-color="#FFE04D" stop-opacity="0"/>
</linearGradient>
<linearGradient id="paint10_linear_5_2165" x1="74.7227" y1="10.2849" x2="74.7227" y2="119.43" gradientUnits="userSpaceOnUse">
<stop stop-color="#FFE04D"/>
<stop offset="0.11" stop-color="#FFE04D"/>
<stop offset="0.23" stop-color="#FFE04D"/>
<stop offset="0.36" stop-color="#FFE04D"/>
<stop offset="0.5" stop-color="#FFE04D"/>
<stop offset="0.64" stop-color="#FFE04D"/>
<stop offset="0.79" stop-color="#FFE04D"/>
<stop offset="0.93" stop-color="#FFE04D"/>
<stop offset="1" stop-color="#FFE04D" stop-opacity="0"/>
</linearGradient>
<linearGradient id="paint11_linear_5_2165" x1="74.712" y1="9.50139" x2="74.712" y2="118.278" gradientUnits="userSpaceOnUse">
<stop stop-color="#FFE04D"/>
<stop offset="0.11" stop-color="#FFE04D"/>
<stop offset="0.24" stop-color="#FFE04D"/>
<stop offset="0.37" stop-color="#FFE04D"/>
<stop offset="0.5" stop-color="#FFE04D"/>
<stop offset="0.64" stop-color="#FFE04D"/>
<stop offset="0.77" stop-color="#FFE04D"/>
<stop offset="0.91" stop-color="#FFE04D"/>
<stop offset="1" stop-color="#FFE04D" stop-opacity="0"/>
</linearGradient>
<linearGradient id="paint12_linear_5_2165" x1="74.712" y1="8.7376" x2="74.712" y2="117.29" gradientUnits="userSpaceOnUse">
<stop stop-color="#FFE04D"/>
<stop offset="0.12" stop-color="#FFE04D"/>
<stop offset="0.24" stop-color="#FFE04D"/>
<stop offset="0.37" stop-color="#FFE04D"/>
<stop offset="0.5" stop-color="#FFE04D"/>
<stop offset="0.63" stop-color="#FFE04D"/>
<stop offset="0.76" stop-color="#FFE04D"/>
<stop offset="0.89" stop-color="#FFE04D"/>
<stop offset="1" stop-color="#FFE04D" stop-opacity="0"/>
</linearGradient>
<linearGradient id="paint13_linear_5_2165" x1="74.7013" y1="7.98698" x2="74.7013" y2="116.454" gradientUnits="userSpaceOnUse">
<stop stop-color="#FFE04D"/>
<stop offset="0.13" stop-color="#FFE04D"/>
<stop offset="0.25" stop-color="#FFE04D"/>
<stop offset="0.38" stop-color="#FFE04D"/>
<stop offset="0.5" stop-color="#FFE04D"/>
<stop offset="0.63" stop-color="#FFE04D"/>
<stop offset="0.75" stop-color="#FFE04D"/>
<stop offset="0.88" stop-color="#FFE04D"/>
<stop offset="1" stop-color="#FFE04D" stop-opacity="0"/>
</linearGradient>
<linearGradient id="paint14_linear_5_2165" x1="74.712" y1="7.24318" x2="74.712" y2="115.743" gradientUnits="userSpaceOnUse">
<stop stop-color="#FFE04D"/>
<stop offset="0.13" stop-color="#FFE04D"/>
<stop offset="0.26" stop-color="#FFE04D"/>
<stop offset="0.38" stop-color="#FFE04D"/>
<stop offset="0.51" stop-color="#FFE04D"/>
<stop offset="0.63" stop-color="#FFE04D"/>
<stop offset="0.75" stop-color="#FFE04D"/>
<stop offset="0.87" stop-color="#FFE04D"/>
<stop offset="0.98" stop-color="#FFE04D"/>
<stop offset="1" stop-color="#FFE04D" stop-opacity="0"/>
</linearGradient>
<linearGradient id="paint15_linear_5_2165" x1="74.7121" y1="6.50548" x2="74.7121" y2="115.163" gradientUnits="userSpaceOnUse">
<stop stop-color="#FFE04D"/>
<stop offset="0.14" stop-color="#FFE04D"/>
<stop offset="0.27" stop-color="#FFE04D"/>
<stop offset="0.39" stop-color="#FFE04D"/>
<stop offset="0.51" stop-color="#FFE04D"/>
<stop offset="0.63" stop-color="#FFE04D"/>
<stop offset="0.74" stop-color="#FFE04D"/>
<stop offset="0.86" stop-color="#FFE04D"/>
<stop offset="0.97" stop-color="#FFE04D"/>
<stop offset="1" stop-color="#FFE04D" stop-opacity="0"/>
</linearGradient>
<linearGradient id="paint16_linear_5_2165" x1="74.6799" y1="5.76802" x2="74.6799" y2="114.696" gradientUnits="userSpaceOnUse">
<stop stop-color="#FFE04D"/>
<stop offset="0.15" stop-color="#FFE04D"/>
<stop offset="0.28" stop-color="#FFE04D"/>
<stop offset="0.4" stop-color="#FFE04D"/>
<stop offset="0.52" stop-color="#FFE04D"/>
<stop offset="0.63" stop-color="#FFE04D"/>
<stop offset="0.74" stop-color="#FFE04D"/>
<stop offset="0.85" stop-color="#FFE04D"/>
<stop offset="0.95" stop-color="#FFE04D"/>
<stop offset="1" stop-color="#FFE04D" stop-opacity="0"/>
</linearGradient>
<linearGradient id="paint17_linear_5_2165" x1="74.6372" y1="5.03716" x2="74.6372" y2="114.367" gradientUnits="userSpaceOnUse">
<stop stop-color="#FFE04D"/>
<stop offset="0.16" stop-color="#FFE04D"/>
<stop offset="0.29" stop-color="#FFE04D"/>
<stop offset="0.41" stop-color="#FFE04D"/>
<stop offset="0.52" stop-color="#FFE04D"/>
<stop offset="0.63" stop-color="#FFE04D"/>
<stop offset="0.74" stop-color="#FFE04D"/>
<stop offset="0.84" stop-color="#FFE04D"/>
<stop offset="0.94" stop-color="#FFE04D"/>
<stop offset="1" stop-color="#FFE04D" stop-opacity="0"/>
</linearGradient>
<linearGradient id="paint18_linear_5_2165" x1="74.6586" y1="4.30629" x2="74.6586" y2="114.149" gradientUnits="userSpaceOnUse">
<stop stop-color="#FFE04D"/>
<stop offset="0.17" stop-color="#FFE04D"/>
<stop offset="0.3" stop-color="#FFE04D"/>
<stop offset="0.42" stop-color="#FFE04D"/>
<stop offset="0.53" stop-color="#FFE04D"/>
<stop offset="0.64" stop-color="#FFE04D"/>
<stop offset="0.74" stop-color="#FFE04D"/>
<stop offset="0.84" stop-color="#FFE04D"/>
<stop offset="0.93" stop-color="#FFE04D"/>
<stop offset="1" stop-color="#FFE04D" stop-opacity="0"/>
</linearGradient>
</defs>
</svg>
